HIERARCHY
ROOT Hips
{
	OFFSET -0.001795 -0.223333 0.028219
	CHANNELS 6 Xposition Yposition Zposition Zrotation Yrotation Xrotation 
	JOINT LeftUpLeg
	{
		OFFSET 0.069520 -0.091406 -0.006815
		CHANNELS 3 Zrotation Yrotation Xrotation
		JOINT LeftLeg
		{
			OFFSET 0.034277 -0.375199 -0.004496
			CHANNELS 3 Zrotation Yrotation Xrotation
			JOINT LeftFoot
			{
				OFFSET -0.013596 -0.397961 -0.043693
				CHANNELS 3 Zrotation Yrotation Xrotation
				JOINT LeftToe
				{
					OFFSET 0.026358 -0.055791 0.119288
					CHANNELS 3 Zrotation Yrotation Xrotation
					End Site
					{
						OFFSET 0.000000 0.000000 0.000000
					}
				}
			}
		}
	}
	JOINT RightUpLeg
	{
		OFFSET -0.067670 -0.090522 -0.004320
		CHANNELS 3 Zrotation Yrotation Xrotation
		JOINT RightLeg
		{
			OFFSET -0.038290 -0.382569 -0.008850
			CHANNELS 3 Zrotation Yrotation Xrotation
			JOINT RightFoot
			{
				OFFSET 0.015774 -0.398415 -0.042312
				CHANNELS 3 Zrotation Yrotation Xrotation
				JOINT RightToe
				{
					OFFSET -0.025372 -0.048144 0.123348
					CHANNELS 3 Zrotation Yrotation Xrotation
					End Site
					{
						OFFSET 0.000000 0.000000 0.000000
					}
				}
			}
		}
	}
	JOINT Spine
	{
		OFFSET -0.002533 0.108963 -0.026696
		CHANNELS 3 Zrotation Yrotation Xrotation
		JOINT Spine1
		{
			OFFSET 0.005487 0.135180 0.001092
			CHANNELS 3 Zrotation Yrotation Xrotation
			JOINT Spine2
			{
				OFFSET 0.001457 0.052922 0.025425
				CHANNELS 3 Zrotation Yrotation Xrotation
				JOINT Neck
				{
					OFFSET -0.002778 0.213870 -0.042857
					CHANNELS 3 Zrotation Yrotation Xrotation
					JOINT Head
					{
						OFFSET 0.005152 0.064970 0.051349
						CHANNELS 3 Zrotation Yrotation Xrotation
						End Site
						{
							OFFSET 0.000000 0.000000 0.000000
						}
					}
				}
				JOINT LeftShoulder
				{
					OFFSET 0.078845 0.121749 -0.034090
					CHANNELS 3 Zrotation Yrotation Xrotation
					JOINT LeftArm
					{
						OFFSET 0.090977 0.030469 -0.008868
						CHANNELS 3 Zrotation Yrotation Xrotation
						JOINT LeftForeArm
						{
							OFFSET 0.259612 -0.012772 -0.027456
							CHANNELS 3 Zrotation Yrotation Xrotation
							JOINT LeftHand
							{
								OFFSET 0.249234 0.008986 -0.001171
								CHANNELS 3 Zrotation Yrotation Xrotation
								End Site
								{
									OFFSET 0.000000 0.000000 0.000000
								}
							}
						}
					}
				}
				JOINT RightShoulder
				{
					OFFSET -0.081759 0.118833 -0.038615
					CHANNELS 3 Zrotation Yrotation Xrotation
					JOINT RightArm
					{
						OFFSET -0.096012 0.032551 -0.009143
						CHANNELS 3 Zrotation Yrotation Xrotation
						JOINT RightForeArm
						{
							OFFSET -0.253742 -0.013329 -0.021401
							CHANNELS 3 Zrotation Yrotation Xrotation
							JOINT RightHand
							{
								OFFSET -0.255298 0.007772 -0.005559
								CHANNELS 3 Zrotation Yrotation Xrotation
								End Site
								{
									OFFSET 0.000000 0.000000 0.000000
								}
							}
						}
					}
				}
			}
		}
	}
}
MOTION
Frames: 11
Frame Time: 0.050000
0.014057 0.946609 -0.034078 -0.419057 -5.489919 4.271020 7.261989 -0.099157 -0.951994 -4.315444 0.503737 -5.725008 3.269420 9.821470 14.753697 0.000000 0.000000 0.000000 -7.422395 0.448689 -2.966791 3.678870 -0.351930 -2.050123 -4.938227 -15.500134 17.299474 0.000000 0.000000 0.000000 -3.019882 0.170848 -4.762776 4.663741 -1.476404 -11.314334 1.441223 3.742769 30.258006 -0.333548 1.597069 -19.624069 0.000000 0.000000 0.000000 -12.381833 -1.388384 0.048874 -41.410768 -34.480859 4.290307 169.707063 -87.610356 -162.143511 0.000000 0.000000 0.000000 3.283517 17.189482 6.337007 28.535702 36.282771 3.033223 -113.199765 85.252378 -102.981594 0.000000 0.000000 0.000000 
0.014850 0.946423 -0.034130 -0.353564 -5.925868 4.166587 7.056879 -0.090730 -0.963966 -4.236413 0.502450 -5.387857 3.514170 10.133362 14.641602 0.000000 0.000000 0.000000 -7.460285 0.457413 -3.048563 3.460466 -0.331365 -1.873141 -4.741625 -15.218947 17.123827 0.000000 0.000000 0.000000 -2.935658 0.171184 -4.684639 4.864249 -1.583480 -10.908565 1.545876 3.617444 30.044148 -0.272860 1.482261 -19.309323 0.000000 0.000000 0.000000 -12.449964 -1.597873 0.204778 -40.317681 -33.996053 3.929587 160.931330 -87.535307 -152.945748 0.000000 0.000000 0.000000 4.143647 17.764394 6.641154 29.109712 35.960812 3.072847 -103.159374 86.696305 -94.434061 0.000000 0.000000 0.000000 
0.015641 0.946430 -0.034360 -0.288761 -6.320748 3.976515 6.816701 -0.080838 -0.925871 -4.086294 0.494306 -5.011254 3.729214 10.412738 14.566161 0.000000 0.000000 0.000000 -7.645853 0.465047 -3.042801 3.516891 -0.331100 -1.700141 -4.544105 -14.937558 17.027469 0.000000 0.000000 0.000000 -2.986703 0.164988 -4.456117 5.176559 -1.727666 -10.554078 1.743513 3.619637 29.866184 -0.459024 1.561970 -19.026798 0.000000 0.000000 0.000000 -12.510803 -1.833475 0.348777 -39.494159 -33.436451 3.601561 158.897820 -87.714306 -150.924992 0.000000 0.000000 0.000000 5.341516 18.353593 7.013592 30.239183 35.378375 3.172634 -67.147882 88.177746 -60.200714 0.000000 0.000000 0.000000 
0.016369 0.946454 -0.034790 -0.209523 -6.586452 3.868291 6.597977 -0.076685 -0.948139 -3.972561 0.487071 -4.756920 3.873945 10.603499 14.535759 0.000000 0.000000 0.000000 -7.809207 0.477546 -3.234340 3.534077 -0.327451 -1.318638 -4.428270 -14.774476 16.933786 0.000000 0.000000 0.000000 -3.101618 0.162119 -4.381118 5.347597 -1.832237 -10.028813 2.122201 3.543080 29.640357 -0.546907 1.581665 -18.886564 0.000000 0.000000 0.000000 -12.440382 -1.922657 0.426673 -38.361866 -33.032106 3.281527 156.540407 -87.811071 -148.567989 0.000000 0.000000 0.000000 6.478118 19.026305 7.416153 31.608146 34.967044 3.364137 6.412208 87.373614 11.154577 0.000000 0.000000 0.000000 
0.017060 0.946351 -0.035522 -0.065174 -6.834296 3.630499 6.365343 -0.074746 -1.055831 -3.945581 0.485974 -4.157718 4.022373 10.790944 14.406100 0.000000 0.000000 0.000000 -8.038672 0.484645 -3.280464 3.555230 -0.324564 -0.984886 -4.323315 -14.613875 16.785523 0.000000 0.000000 0.000000 -3.222069 0.152246 -4.061856 5.609570 -1.958945 -9.674187 2.585565 3.722816 29.611779 -0.749615 1.705856 -18.343863 0.000000 0.000000 0.000000 -12.444929 -2.251313 0.577051 -37.325531 -32.366982 2.896021 163.408887 -87.463448 -155.680765 0.000000 0.000000 0.000000 7.492620 19.593053 7.798375 33.204114 34.770808 3.648293 24.655354 85.036016 27.602219 0.000000 0.000000 0.000000 
0.017743 0.946527 -0.036547 0.105630 -6.958743 3.399306 6.061565 -0.078968 -1.230735 -3.820966 0.474343 -3.535216 4.102393 10.893291 14.352791 0.000000 0.000000 0.000000 -8.235791 0.488894 -3.338860 3.491835 -0.315759 -0.641280 -4.266100 -14.533210 16.739929 0.000000 0.000000 0.000000 -3.368852 0.140494 -3.646056 5.812316 -2.077895 -9.128356 2.984673 3.607136 29.496316 -0.680086 1.624666 -18.238097 0.000000 0.000000 0.000000 -12.547931 -2.520467 0.733216 -36.035027 -31.608806 2.461910 166.693755 -87.131825 -159.059695 0.000000 0.000000 0.000000 8.296763 20.473811 8.257930 34.099383 35.091675 3.940512 28.043644 82.497477 29.378361 0.000000 0.000000 0.000000 
0.018543 0.946526 -0.038049 0.169683 -7.263070 3.130758 5.886119 -0.069497 -1.157952 -3.750008 0.469746 -3.253278 4.256979 11.100847 14.332709 0.000000 0.000000 0.000000 -8.252144 0.491276 -3.403920 3.285623 -0.293316 -0.312977 -4.118334 -14.319368 16.634495 0.000000 0.000000 0.000000 -3.295670 0.130184 -3.197625 5.967333 -2.162380 -8.861820 3.593098 3.832736 29.812988 -0.885980 1.763873 -17.848139 0.000000 0.000000 0.000000 -12.398486 -2.816967 0.880752 -35.321611 -30.874381 2.109237 -179.413682 -86.462537 -173.661485 0.000000 0.000000 0.000000 8.682692 21.198312 8.626613 34.854982 35.892352 4.322622 21.001715 80.059896 22.224888 0.000000 0.000000 0.000000 
0.019508 0.946714 -0.040067 0.299187 -7.274309 3.036433 5.683866 -0.084173 -1.476044 -3.725374 0.466476 -2.790452 4.276479 11.128493 14.337144 0.000000 0.000000 0.000000 -8.363384 0.499425 -3.675360 3.146120 -0.276642 0.071490 -4.119065 -14.333850 16.670054 0.000000 0.000000 0.000000 -3.301647 0.118782 -2.654010 6.243970 -2.313010 -8.264782 3.981887 3.881398 29.502320 -0.873331 1.752145 -17.608133 0.000000 0.000000 0.000000 -12.346193 -3.132107 1.016860 -34.619378 -30.016771 1.797810 -171.727420 -86.187172 178.011270 0.000000 0.000000 0.000000 8.783620 21.944781 8.960265 35.107178 36.920272 4.727082 14.698035 77.769068 16.201667 0.000000 0.000000 0.000000 
0.020508 0.946903 -0.042534 0.357408 -7.308534 3.094778 5.602301 -0.097070 -1.731665 -3.778111 0.472195 -2.761952 4.287772 11.152848 14.447428 0.000000 0.000000 0.000000 -8.344597 0.505728 -3.853689 2.912601 -0.257917 -0.052360 -4.085207 -14.315389 16.825215 0.000000 0.000000 0.000000 -3.138699 0.113186 -2.333271 6.432480 -2.393250 -8.151938 4.273388 4.070748 29.880909 -0.925092 1.816021 -17.542466 0.000000 0.000000 0.000000 -11.948019 -3.468526 1.163952 -34.153225 -29.543248 1.579655 -167.329401 -85.841411 173.142241 0.000000 0.000000 0.000000 8.774223 22.685245 9.295979 34.543414 38.150733 4.942053 5.593971 75.405234 8.505216 0.000000 0.000000 0.000000 
0.021383 0.947191 -0.045046 0.331113 -6.969918 3.222772 5.645693 -0.112271 -1.962227 -3.825374 0.474531 -3.001821 4.101308 10.913959 14.567283 0.000000 0.000000 0.000000 -8.324228 0.511395 -4.218839 2.898360 -0.255225 0.175775 -4.241437 -14.568193 17.064854 0.000000 0.000000 0.000000 -3.102683 0.105588 -1.907660 6.755346 -2.520439 -8.035125 4.508849 4.190579 29.941197 -0.543418 1.603829 -17.646601 0.000000 0.000000 0.000000 -11.898508 -3.608923 1.179817 -33.398970 -29.442502 1.455928 -154.235364 -85.561507 158.734557 0.000000 0.000000 0.000000 8.016687 23.237525 9.428542 34.062553 39.454507 5.228407 -3.220707 72.568738 1.690782 0.000000 0.000000 0.000000 
0.022089 0.947430 -0.047216 0.269325 -6.532111 3.270854 5.515373 -0.129066 -2.161656 -3.475960 0.436752 -3.116581 3.893140 10.640346 14.586925 0.000000 0.000000 0.000000 -8.153701 0.498713 -4.131139 2.713412 -0.247109 -0.156314 -4.414531 -14.839958 17.373791 0.000000 0.000000 0.000000 -2.937993 0.095972 -1.509717 7.097734 -2.662346 -7.848295 4.497834 4.247453 29.980973 -0.261630 1.457866 -17.707649 0.000000 0.000000 0.000000 -11.547480 -3.703807 1.182364 -32.998698 -29.488890 1.416392 -147.745786 -85.520788 151.550497 0.000000 0.000000 0.000000 7.562309 23.939327 9.667219 32.962889 40.486459 5.261646 -10.362044 69.327621 -3.301079 0.000000 0.000000 0.000000 
